<svg width="32" height="32" viewBox="0 0 32 32" fill="none" xmlns="http://www.w3.org/2000/svg">
<circle cx="16" cy="16" r="15.4811" fill="#232323" stroke="white" stroke-width="1.03784"/>
<path d="M23.3906 19.7102V12.6538C23.3906 9.27253 20.0186 9.28181 20.0186 9.28181H18.8949V7.03358L15.5229 10.4063L18.8949 13.7782V11.53C18.8949 11.53 19.3637 11.53 20.0186 11.53C21.0097 11.53 21.1424 12.6538 21.1424 12.6538V19.7102C20.4724 20.0998 20.0186 20.8147 20.0186 21.6467C20.0186 22.8874 21.0261 23.8949 22.2669 23.8949C23.5076 23.8949 24.5151 22.8867 24.5151 21.6467C24.5151 20.8169 24.0599 20.0998 23.3906 19.7102ZM22.2669 22.7711C21.6468 22.7711 21.1424 22.2681 21.1424 21.6474C21.1424 21.0273 21.6461 20.5236 22.2669 20.5236C22.8883 20.5236 23.3906 21.0273 23.3906 21.6474C23.3906 22.2688 22.8876 22.7711 22.2669 22.7711ZM9.9013 12.5767V19.6325C9.9013 23.0137 13.274 23.0052 13.274 23.0052H14.3977V25.2534L17.7697 21.8814L14.3977 18.5087V20.7569C14.3977 20.7569 13.929 20.7569 13.274 20.7569C12.2829 20.7569 12.1502 19.6332 12.1502 19.6332V12.5774C12.8202 12.1872 13.274 11.4722 13.274 10.6403C13.274 9.39953 12.2665 8.39208 11.0258 8.39208C9.785 8.39208 8.77754 9.39953 8.77754 10.6403C8.77754 11.4708 9.23132 12.1864 9.9013 12.5767ZM11.0258 11.8111C10.4057 11.8111 9.90201 11.3088 9.90201 10.6874C9.90201 10.0674 10.4057 9.56364 11.0258 9.56364C11.6479 9.56364 12.1495 10.0674 12.1495 10.6874C12.1495 11.3096 11.6472 11.8111 11.0258 11.8111Z" fill="white"/>
</svg>


